<svg xmlns="http://www.w3.org/2000/svg" viewBox="0 0 355.59 86"><defs><style>.cls-1{fill:#3bc5ac;}</style></defs><title>portfolio-logo-dark</title><g id="Layer_2" data-name="Layer 2"><g id="Layer_1-2" data-name="Layer 1"><circle class="cls-1" cx="12" cy="74" r="12"/><polygon points="88 86 67 86 26 0 47 0 88 86"/><path d="M117.22,30.65H107.05l-2,5.32h-2.36l8.16-22.08h2.52L121.54,36h-2.37ZM112.13,16.7l-4.41,12.1h8.83Z"/><path d="M137.22,18.5h2.3L129.16,44.19h-2.34l3.39-8.32L123.05,18.5h2.46l6,14.91Z"/><path d="M150.21,36.22c-4.92,0-8.67-3.45-8.67-9s3.84-9,8.74-9,8.73,3.42,8.73,9S155.14,36.22,150.21,36.22Zm0-1.95c3.3,0,6.5-2.24,6.5-7s-3.14-7-6.46-7-6.44,2.24-6.44,7S146.89,34.27,150.21,34.27Z"/><path d="M178.24,36H176V32.89a6.3,6.3,0,0,1-5.95,3.36c-4,0-7.1-2.43-7.1-7.55V18.5h2.21v10c0,3.87,2.11,5.85,5.31,5.85s5.53-2,5.53-6.3V18.5h2.24Z"/><path d="M192.52,18.24c4.8,0,8.32,3.49,8.32,9s-3.56,9-8.32,9a7.35,7.35,0,0,1-7-4.09V36h-2.2V12.29h2.2V22.37A7.41,7.41,0,0,1,192.52,18.24Zm-.45,2c-3.55,0-6.5,2.69-6.5,7s3,7,6.5,7,6.49-2.66,6.49-7.07S195.75,20.19,192.07,20.19Z"/><path d="M223.65,13.34c5,0,8.71,2.5,10.31,6.79h-2.63a7.78,7.78,0,0,0-7.68-4.83c-4.89,0-8.64,3.61-8.64,9.47s3.75,9.44,8.64,9.44a7.83,7.83,0,0,0,7.68-4.77H234c-1.6,4.22-5.32,6.72-10.31,6.72-6.21,0-10.94-4.67-10.94-11.39S217.44,13.34,223.65,13.34Z"/><path d="M238.4,12.29h2.24v9.18a6.59,6.59,0,0,1,6.08-3.29c3.88,0,7,2.43,7,7.55V36h-2.21V26c0-3.87-2.11-5.85-5.31-5.85s-5.54,2.05-5.54,6.3V36H238.4Z"/><path d="M266,18.24a7.29,7.29,0,0,1,6.91,4.1V18.5h2.24V36H272.9V32.09A7.38,7.38,0,0,1,266,36.22c-4.77,0-8.32-3.55-8.32-9S261.19,18.24,266,18.24Zm.41,2c-3.68,0-6.49,2.56-6.49,7s2.81,7.07,6.49,7.07,6.5-2.69,6.5-7S270,20.19,266.4,20.19Z"/><path d="M305.79,26c0-3.87-2-5.85-5.12-5.85s-5.4,2.11-5.4,6.36V36h-2.21V26c0-3.87-2.05-5.85-5.15-5.85s-5.41,2.11-5.41,6.36V36h-2.24V18.5h2.24v3a6.25,6.25,0,0,1,5.79-3.32,6.44,6.44,0,0,1,6.46,4.28,6.37,6.37,0,0,1,6.31-4.28c3.87,0,6.94,2.43,6.94,7.55V36h-2.21Z"/><path d="M320.42,18.24c4.38,0,7.23,2.33,8,6h-2.4c-.57-2.49-2.69-4-5.63-4-3.42,0-6.21,2.33-6.21,7.07s2.79,7.1,6.21,7.1c2.94,0,5-1.5,5.63-4.06h2.4c-.8,3.49-3.65,5.95-8,5.95-4.93,0-8.48-3.45-8.48-9S315.49,18.24,320.42,18.24Z"/><path d="M332.58,12.29h2.24v9.18a6.58,6.58,0,0,1,6.08-3.29c3.87,0,7,2.43,7,7.55V36h-2.2V26c0-3.87-2.12-5.85-5.32-5.85s-5.53,2.05-5.53,6.3V36h-2.24Z"/><path d="M352.32,13.54A1.64,1.64,0,1,1,354,15.2,1.63,1.63,0,0,1,352.32,13.54Zm.51,5h2.25V36h-2.25Z"/><path d="M107.38,70.08c-2.24,0-3.72-1.28-3.78-3h1.18a2.33,2.33,0,0,0,2.6,2c1.55,0,2.46-.91,2.46-2.06,0-3.3-6.15-1.22-6.15-5.43,0-1.73,1.43-3,3.59-3s3.41,1.18,3.6,2.72h-1.21a2.31,2.31,0,0,0-2.44-1.76,2.1,2.1,0,0,0-2.4,2c0,3.23,6.15,1.25,6.15,5.41C111,68.54,109.75,70.08,107.38,70.08Z"/><path d="M117,70.09a4.5,4.5,0,1,1,4.4-4.49A4.21,4.21,0,0,1,117,70.09Zm0-1a3.54,3.54,0,0,0,0-7.05,3.19,3.19,0,0,0-3.22,3.53A3.17,3.17,0,0,0,117,69.12Z"/><path d="M123.69,62.17h-1.21v-.94h1.21v-.61c0-1.87.89-2.77,3.09-2.77v1c-1.49,0-2,.54-2,1.81v.61h2v.94h-2V70h-1.12Z"/><path d="M128.93,62.17h-1.22v-.94h1.22V59h1.13v2.2h2.4v.94h-2.4V67.6c0,1.07.37,1.41,1.38,1.41h1v1h-1.2c-1.52,0-2.33-.63-2.33-2.37Z"/><path d="M133.26,61.23h1.14l2.18,7.6,2.44-7.6h1.12l2.42,7.62,2.16-7.62h1.11L143.09,70H142l-2.42-7.33L137.13,70H136Z"/><path d="M151,61.1a3.62,3.62,0,0,1,3.45,2V61.23h1.12V70h-1.12V68A3.68,3.68,0,0,1,151,70.09c-2.38,0-4.16-1.77-4.16-4.51A4.13,4.13,0,0,1,151,61.1Zm.21,1a3.54,3.54,0,0,0,0,7.05,3.54,3.54,0,0,0,0-7.05Z"/><path d="M159.26,70h-1.12V61.23h1.12v1.55a3,3,0,0,1,3-1.71v1.17H162c-1.45,0-2.69.65-2.69,2.84Z"/><path d="M167.71,70.09a4.16,4.16,0,0,1-4.29-4.49,4.14,4.14,0,0,1,4.29-4.5,3.93,3.93,0,0,1,4.13,4.05,8.24,8.24,0,0,1,0,.88h-7.25a3,3,0,0,0,3.15,3.12,2.7,2.7,0,0,0,2.82-2h1.18A3.84,3.84,0,0,1,167.71,70.09Zm-3.15-5h6.14a2.85,2.85,0,0,0-3-3.06A3,3,0,0,0,164.56,65.12Z"/><path d="M182,61.1a3.78,3.78,0,0,1,3.44,2v-5h1.12V70h-1.12V68a3.63,3.63,0,0,1-3.45,2.08c-2.41,0-4.18-1.77-4.18-4.51A4.12,4.12,0,0,1,182,61.1Zm.19,1a3.54,3.54,0,0,0,0,7.05,3.54,3.54,0,0,0,0-7.05Z"/><path d="M192.85,70.09a4.16,4.16,0,0,1-4.29-4.49,4.14,4.14,0,0,1,4.29-4.5A3.93,3.93,0,0,1,197,65.15a6.19,6.19,0,0,1,0,.88h-7.25a3.06,3.06,0,0,0,3.16,3.12,2.69,2.69,0,0,0,2.81-2h1.19A3.84,3.84,0,0,1,192.85,70.09Zm-3.16-5h6.15a2.85,2.85,0,0,0-3-3.06A3,3,0,0,0,189.69,65.12Z"/><path d="M199.18,61.23l2.95,7.65,2.94-7.65h1.19L202.75,70h-1.26L198,61.23Z"/><path d="M211.55,70.09a4.16,4.16,0,0,1-4.29-4.49,4.14,4.14,0,0,1,4.29-4.5,3.93,3.93,0,0,1,4.13,4.05,8.24,8.24,0,0,1,0,.88H208.4a3,3,0,0,0,3.15,3.12,2.7,2.7,0,0,0,2.82-2h1.18A3.84,3.84,0,0,1,211.55,70.09Zm-3.15-5h6.14a2.85,2.85,0,0,0-3-3.06A3,3,0,0,0,208.4,65.12Z"/><path d="M217.72,58.12h1.13V70h-1.13Z"/><path d="M225.21,70.09a4.5,4.5,0,1,1,4.41-4.49A4.26,4.26,0,0,1,225.21,70.09Zm0-1A3.54,3.54,0,1,0,222,65.6,3.17,3.17,0,0,0,225.21,69.12Z"/><path d="M236.24,61.1c2.38,0,4.16,1.74,4.16,4.48s-1.78,4.51-4.16,4.51a3.73,3.73,0,0,1-3.47-2v6h-1.11V61.23h1.11v1.92A3.69,3.69,0,0,1,236.24,61.1Zm-.22,1a3.54,3.54,0,0,0,0,7.05,3.54,3.54,0,0,0,0-7.05Z"/><path d="M246.24,70.09A4.16,4.16,0,0,1,242,65.6a4.14,4.14,0,0,1,4.29-4.5,3.93,3.93,0,0,1,4.13,4.05,6.19,6.19,0,0,1,0,.88h-7.25a3.06,3.06,0,0,0,3.16,3.12,2.69,2.69,0,0,0,2.81-2h1.19A3.84,3.84,0,0,1,246.24,70.09Zm-3.16-5h6.15a2.85,2.85,0,0,0-3-3.06A3,3,0,0,0,243.08,65.12Z"/><path d="M253.53,70h-1.12V61.23h1.12v1.55a3,3,0,0,1,3-1.71v1.17h-.31c-1.45,0-2.69.65-2.69,2.84Z"/></g></g></svg>